HIERARCHY
ROOT Hips
{
  OFFSET 0 0 0
  CHANNELS 6 Xposition Yposition Zposition Zrotation Xrotation Yrotation
  JOINT Spine
  {
    OFFSET 0 8.18577 0
    CHANNELS 3 Zrotation Xrotation Yrotation
    JOINT Spine1
    {
      OFFSET 0 23.9492 0
      CHANNELS 3 Zrotation Xrotation Yrotation
      JOINT Neck
      {
        OFFSET 0 23.8508 2.16826
        CHANNELS 3 Zrotation Xrotation Yrotation
        JOINT Head
        {
          OFFSET 0 13.9757 -1.99653
          CHANNELS 3 Zrotation Xrotation Yrotation
          End Site
          {
            OFFSET 0 24.9566 0
          }
        }
      }
      JOINT LeftShoulder
      {
        OFFSET 3.97939 22.162 -0.249083
        CHANNELS 3 Zrotation Xrotation Yrotation
        JOINT LeftArm
        {
          OFFSET 10.8129 0 0
          CHANNELS 3 Zrotation Xrotation Yrotation
          JOINT LeftForeArm
          {
            OFFSET 31.6972 0 0
            CHANNELS 3 Zrotation Xrotation Yrotation
            JOINT LeftHand
            {
              OFFSET 27.0474 0 0
              CHANNELS 3 Zrotation Xrotation Yrotation
              End Site
              {
                OFFSET 14.974 0 0
              }
            }
          }
        }
      }
      JOINT RightShoulder
      {
        OFFSET -4.00645 22.162 -0.249083
        CHANNELS 3 Zrotation Xrotation Yrotation
        JOINT RightArm
        {
          OFFSET -10.8129 0 0
          CHANNELS 3 Zrotation Xrotation Yrotation
          JOINT RightForeArm
          {
            OFFSET -31.6972 0 0
            CHANNELS 3 Zrotation Xrotation Yrotation
            JOINT RightHand
            {
              OFFSET -27.0474 0 0
              CHANNELS 3 Zrotation Xrotation Yrotation
              End Site
              {
                OFFSET -14.974 0 0
              }
            }
          }
        }
      }
    }
  }
  JOINT LeftUpLeg
  {
    OFFSET 9.98265 0 0
    CHANNELS 3 Zrotation Xrotation Yrotation
    JOINT LeftLeg
    {
      OFFSET 0 -38.5116 0
      CHANNELS 3 Zrotation Xrotation Yrotation
      JOINT LeftFoot
      {
        OFFSET 0 -44.7893 0
        CHANNELS 3 Zrotation Xrotation Yrotation
        JOINT LeftToeBase
        {
          OFFSET 0 -6.48872 14.974
          CHANNELS 3 Zrotation Xrotation Yrotation
          End Site
          {
            OFFSET 0 0 3.99306
          }
        }
      }
    }
  }
  JOINT RightUpLeg
  {
    OFFSET -9.98265 0 0
    CHANNELS 3 Zrotation Xrotation Yrotation
    JOINT RightLeg
    {
      OFFSET 0 -38.5116 0
      CHANNELS 3 Zrotation Xrotation Yrotation
      JOINT RightFoot
      {
        OFFSET 0 -44.7893 0
        CHANNELS 3 Zrotation Xrotation Yrotation
        JOINT RightToeBase
        {
          OFFSET 0 -6.48872 14.974
          CHANNELS 3 Zrotation Xrotation Yrotation
          End Site
          {
            OFFSET 0 0 3.99306
          }
        }
      }
    }
  }
}
MOTION
Frames:	12
Frame Time:	0.00833333
-14.4496 95.8377 197.082 1.18179 -4.83412 176.923 0.105186 -9.56097 -0.279186 2.08109 2.33942 -0.330636 6.15167 37.5718 1.59162 -14.3498 -27.937 -2.46671 10.3829 3.44978 0.263176 -18.4993 0.952141 1.39084 5.29267 6.20106 -0.323237 -10.7834 5.85022 3.89887 -16.4464 0.0212354 -4.69034 24.9126 -12.4551 1.05019 -3.88989 11.7349 10.8409 -12.0711 13.4319 -12.8952 5.48685 -6.17424 2.88004 -1.12831 11.9657 2.90885 -4.29541 -5.11316 13.1982 0 7.95139e-016 -0 -0.816886 -4.65094 -5.26033 -2.29872 6.19119 3.36605 5.12665 1.61911 -16.2375 2.64834e-031 1.59028e-015 -9.54166e-015 
-14.4381 95.8129 197.054 1.29291 -4.82378 176.832 0.0985911 -9.59194 -0.220841 2.23339 2.4329 -0.276616 6.20123 37.4823 1.62016 -14.4227 -27.7052 -2.43208 10.3666 3.43202 0.222947 -18.5289 0.936685 1.35574 5.28122 6.16733 -0.352323 -10.6053 5.81102 4.03613 -16.485 0.0119473 -4.69018 24.9378 -12.4179 0.990851 -3.89951 11.6869 10.8606 -12.0683 13.3821 -12.8635 5.64549 -6.1648 3.03889 -1.16588 12.0653 2.80767 -4.22482 -5.28201 13.2002 0 2.38542e-015 -0 -0.661309 -4.63461 -5.19163 -2.35951 6.19542 3.39678 5.12864 1.6182 -16.2283 -3.97569e-016 1.59028e-015 -6.36111e-015 
-14.4983 95.8169 197.028 1.21754 -4.83476 176.798 0.0713159 -9.60057 -0.226488 2.17992 2.43142 -0.278929 5.91334 37.7858 1.69298 -14.0042 -28.1555 -2.2932 10.3611 3.43267 0.219914 -18.5503 0.947488 1.38524 5.30375 6.17765 -0.375479 -10.6101 5.82846 3.96994 -16.4765 0.000721104 -4.63465 24.9665 -12.4038 0.971738 -3.90099 11.6608 10.8666 -12.093 13.358 -12.8513 5.51551 -6.19686 3.00022 -1.14946 12.1342 2.83628 -4.17606 -5.29806 13.2258 8.82781e-032 -1.59028e-015 3.18055e-015 -0.792746 -4.65208 -5.24436 -2.33778 6.21781 3.45608 5.1435 1.59162 -16.2168 -8.82781e-032 -1.59028e-015 -3.18055e-015 
-14.5857 95.8298 197.01 1.1175 -4.85583 176.78 0.0841747 -9.59466 -0.236109 2.0539 2.39953 -0.286391 5.90678 37.8377 1.71507 -14.0235 -28.0736 -2.26577 10.3766 3.4322 0.213775 -18.5894 0.954946 1.40646 5.31863 6.18822 -0.371775 -10.5998 5.84328 3.92655 -16.4499 0.00120963 -4.59018 24.9929 -12.3928 0.974032 -3.9109 11.6338 10.8799 -12.0624 13.3283 -12.8438 5.32645 -6.25164 2.90489 -1.1152 12.1993 2.9023 -4.13497 -5.27361 13.2695 -1.32417e-031 2.38542e-015 3.18055e-015 -0.983844 -4.67966 -5.25115 -2.27697 6.23387 3.42612 5.18639 1.57403 -16.1967 3.97569e-016 0 -0 
-14.6404 95.8311 196.992 1.08485 -4.88127 176.736 0.074635 -9.62361 -0.204898 2.02313 2.44322 -0.254476 5.98641 37.858 1.67623 -14.0981 -28.0361 -2.31156 10.418 3.43301 0.207811 -18.6417 0.939314 1.34814 5.31689 6.16831 -0.390198 -10.5868 5.82062 3.97 -16.4399 -0.00481734 -4.5909 25.0207 -12.3556 0.929269 -3.92389 11.5988 10.9189 -12.0042 13.2904 -12.8523 5.24451 -6.31044 2.89389 -1.09188 12.2849 2.93773 -4.11059 -5.30212 13.2723 -3.97569e-016 7.95139e-016 6.36111e-015 -1.05618 -4.71096 -5.22738 -2.26615 6.24424 3.37301 5.22211 1.59744 -16.1281 3.97569e-016 -1.59028e-015 3.18055e-015 
-14.6869 95.823 196.968 1.05691 -4.90323 176.716 0.07321 -9.61634 -0.194403 1.97066 2.41004 -0.242212 6.0626 37.9626 1.6704 -14.1633 -28.0558 -2.32132 10.4389 3.45941 0.194964 -18.6712 0.971467 1.33998 5.33492 6.12627 -0.453751 -10.585 5.78004 3.98721 -16.3757 0.0234747 -4.59845 25.0285 -12.3126 0.93627 -3.95848 11.5785 10.9425 -11.8931 13.2607 -12.8398 5.17635 -6.3773 2.87999 -1.07841 12.3934 2.99026 -4.07734 -5.3595 13.2536 -5.96354e-016 -7.95139e-016 3.18055e-015 -1.11644 -4.7524 -5.19361 -2.26586 6.29095 3.25845 5.26332 1.57367 -16.0444 -3.97569e-016 -1.59028e-015 -6.36111e-015 
-14.694 95.8025 196.94 1.13098 -4.91289 176.64 0.104214 -9.56923 -0.165315 2.02414 2.32087 -0.215401 6.07259 38.1212 1.64076 -14.1885 -28.0743 -2.35126 10.3876 3.49056 0.166957 -18.6593 0.993304 1.36292 5.34873 6.12926 -0.491343 -10.5783 5.79111 3.92149 -16.3239 0.082225 -4.59115 25.0204 -12.3984 0.983763 -3.94778 11.622 10.9238 -11.8689 13.2938 -12.7832 5.27383 -6.4179 3.0054 -1.09736 12.5291 2.9571 -4.0337 -5.50319 13.2246 -8.82781e-032 1.59028e-015 3.18055e-015 -1.02078 -4.7823 -5.04619 -2.30028 6.34039 3.15512 5.26945 1.54562 -16.0243 -3.97569e-016 1.59028e-015 -0 
-14.7223 95.7893 196.914 1.16131 -4.9306 176.584 0.0840597 -9.53913 -0.125292 2.08696 2.26632 -0.173993 6.15504 38.202 1.57607 -14.2737 -28.037 -2.42294 10.3528 3.51261 0.134228 -18.6567 0.961335 1.32318 5.35874 6.20145 -0.493407 -10.6772 5.87373 3.77641 -16.2835 0.0879909 -4.59843 24.9889 -12.379 0.930423 -3.93298 11.6048 10.9518 -11.8474 13.2719 -12.7628 5.29822 -6.46822 3.06957 -1.10172 12.6472 2.92377 -3.99909 -5.60417 13.2324 4.41391e-032 7.95139e-016 -3.18055e-015 -0.993513 -4.79459 -5.01426 -2.32351 6.35054 3.21693 5.27853 1.53074 -16.0419 -3.97569e-016 0 -3.18055e-015 
-14.7838 95.7886 196.879 1.12797 -4.92707 176.568 0.0681572 -9.56624 -0.11625 2.06479 2.35365 -0.164684 6.18712 38.1985 1.58847 -14.3114 -28.0084 -2.41413 10.3713 3.49472 0.104898 -18.702 0.959842 1.32314 5.36938 6.19409 -0.509944 -10.7136 5.87182 3.71336 -16.2653 0.0394945 -4.58008 24.99 -12.2674 0.851946 -3.96044 11.5374 11.0061 -11.7078 13.1952 -12.7761 5.20712 -6.49668 3.01988 -1.08648 12.7408 2.96426 -3.96718 -5.64656 13.2556 -3.97569e-016 1.59028e-015 3.18055e-015 -1.07365 -4.75322 -5.0878 -2.31868 6.30648 3.2634 5.32422 1.52731 -16.0257 3.97569e-016 -1.59028e-015 6.36111e-015 
-14.7981 95.7712 196.845 1.20787 -4.92764 176.495 0.125288 -9.65393 -0.121654 2.10731 2.56284 -0.179731 6.02402 38.1171 1.68003 -14.2107 -27.973 -2.31775 10.4068 3.45463 0.131311 -18.7867 1.02465 1.39771 5.37933 6.10826 -0.59086 -10.6118 5.78146 3.83784 -16.3615 0.00563794 -4.523 25.1268 -12.2854 0.878891 -3.99083 11.5302 11.0229 -11.5919 13.1773 -12.7615 5.3099 -6.50254 3.12805 -1.11927 12.8369 2.91921 -3.91515 -5.77862 13.2492 1.98785e-016 -2.38542e-015 -0 -0.984113 -4.75896 -5.42256 -2.39031 6.32525 3.66504 5.33912 1.50773 -16.0191 -3.97569e-016 3.18055e-015 -0 
-14.8577 95.7681 196.814 1.19613 -4.9357 176.466 0.128172 -9.66402 -0.110992 2.09567 2.62269 -0.170199 6.06274 38.0762 1.64663 -14.2664 -27.8948 -2.35851 10.4294 3.44859 0.161537 -18.8438 1.04619 1.35811 5.41498 6.11117 -0.636655 -10.7507 5.79225 3.72973 -16.3837 0.0200731 -4.53664 25.2056 -12.2065 0.885903 -4.04133 11.5168 11.0339 -11.5308 13.161 -12.7476 5.25506 -6.53181 3.10657 -1.11834 12.9166 2.93365 -3.88559 -5.82714 13.2811 -1.98785e-016 0 -3.18055e-015 -1.06023 -4.80689 -5.77087 -2.39221 6.40706 4.0001 5.37021 1.48078 -15.9833 3.97569e-016 -3.18055e-015 -0 
-14.9077 95.7605 196.781 1.20451 -4.93417 176.439 0.116309 -9.59382 -0.0794873 2.12142 2.53637 -0.136126 6.14994 38.168 1.57952 -14.3308 -27.8694 -2.42432 10.388 3.49382 0.126608 -18.8252 1.0066 1.30671 5.42522 6.15759 -0.653726 -10.9076 5.84391 3.62935 -16.3541 0.0649808 -4.56296 25.2131 -12.1394 0.864215 -4.0535 11.4774 11.0404 -11.581 13.1294 -12.7545 5.22948 -6.57592 3.11137 -1.11313 13.0485 2.93799 -3.85626 -5.90877 13.2946 -1.76556e-031 -3.18055e-015 -3.18055e-015 -1.08157 -4.77273 -5.7106 -2.38715 6.37884 3.95248 5.39531 1.47854 -15.979 3.97569e-016 -1.59028e-015 -6.36111e-015 
